<svg xmlns="http://www.w3.org/2000/svg" viewBox="0 0 166.09 106.21"><defs><style>.cls-1{fill:#fff;}.cls-2{fill:#f8b5b9;}.cls-3{fill:#fdd93f;}.cls-4{fill:#fef8e8;}</style></defs><g id="Capa_2" data-name="Capa 2"><g id="Capa_3" data-name="Capa 3"><path class="cls-1" d="M7.84,50.35c5.11-9.89,11.28-10.1,11.28-10.1a22,22,0,0,1,8.3-17.83C36.58,15.25,32.83,5.7,32.83,5.7S43.3,17.24,53.43,18.83,68.8,38.65,59.17,47.21c6.67-8.22,14.77-2.72,14.77-2.72S81,62.6,66.85,63.81c6.84,1,3.88,16.72,1.18,31.15s-23,11.84-40.61,8.48C17,95,13.51,67.11,13.51,67.11S2.72,60.25,7.84,50.35Z"/><path class="cls-2" d="M15.59,69.63l-.82-.08c-.62-.21-1.22-.45-1.85-.62s-1,.15-.76.84c.81,2.22,1.3,4.56,2.58,6.59v0a2.51,2.51,0,0,0,.78,2.12c2.54,7.6,5.64,14.94,10.35,21.49a6.35,6.35,0,0,0,5.44,2.66c7.7.2,15.29-.85,22.89-1.77,3.36-.4,5.39-2.72,6.83-5.48a141.38,141.38,0,0,0,7.83-19.27c.41-1.2,0-1.52-1.06-1.71-3-.54-3.74-.13-4.56,2.76-1.57,5.52-2.57,11.19-4.42,16.64a16.6,16.6,0,0,1-1.28,2.89,2.44,2.44,0,0,1-2.77,1.46,2.52,2.52,0,0,1-2-2.21,27.12,27.12,0,0,1-.1-7.31c.36-4.68.77-9.35.67-14,0-1.68-.88-2.52-2.39-2.52s-1.7,1.34-1.73,2.58c-.11,5-.19,9.92-.35,14.87a19.65,19.65,0,0,1-1.18,6.4c-.63,1.68-1.58,3.13-3.68,3s-2.86-1.74-3.27-3.45a72.39,72.39,0,0,1-1.31-11.19,50.2,50.2,0,0,0-1.28-8.8c-.71-2.71-1.59-3.08-4.32-2.48-1.31.29-1.44,1-1.17,2a108.73,108.73,0,0,1,2.55,13c.43,3.06.95,6.15.16,9.24-.74,2.89-2.94,3.71-5.4,2a17.37,17.37,0,0,1-5.06-6,82.26,82.26,0,0,1-7.4-17.92c-.37-1.28-.54-2.48,1-2.89s2.17.73,2.53,2.08a65.43,65.43,0,0,0,8.18,18.61c.65,1,1.38,2.77,2.47,2.39s.31-2.1.24-3.25a106,106,0,0,0-2.92-17c-.78-3.33.16-4.84,3.4-5.7a19,19,0,0,1,3.33-.43A4.63,4.63,0,0,1,40.56,72c1.69,3.16,2,6.68,2.34,10.15.43,4,.41,8.16,1.4,12.56a22.34,22.34,0,0,0,1-6.76c.12-4.44,0-8.87.12-13.3.12-5.33,4.46-7.73,9.11-5.17,1.85,1,2.24,2.73,2.28,4.54a68.78,68.78,0,0,1-.33,11.48,5.37,5.37,0,0,0,.24,2.42C57.88,83.47,59,79,60.15,74.63A4.61,4.61,0,0,1,64,70.85a14.14,14.14,0,0,1,4.94.08c4.46,1,5.42.82,3.49,6.06-2.36,6.38-4.73,12.76-7.58,19-2.64,5.7-7.07,8.5-13.36,9-6.65.51-13.26,1.31-19.95,1.3a10.45,10.45,0,0,1-9.3-5c-1.35-2-2.58-4.14-3.87-6.21A192.5,192.5,0,0,1,8.05,68.65C7.53,67,6.3,66.07,5.22,65c-5.37-5.53-6.83-14.33-3.29-20.7a20.27,20.27,0,0,1,9.46-8.42,3.48,3.48,0,0,0,2.32-3.36c.43-5.16,3.25-9.27,6.62-13,1.37-1.51,3-2.75,4.52-4.14,2.4-2.24,2.7-3.68,1.26-6.64-.58-1.16-.44-2.08.6-2.73s1.93-.11,2.68.83a36.54,36.54,0,0,0,10.74,8.93,10.43,10.43,0,0,0,1.48.54A22.24,22.24,0,0,0,51,19.57c5.85.95,9.69,4.26,10.76,9.58A9.28,9.28,0,0,1,62,32.3c-.23,1.71.65,2.16,2.08,2.34a19.55,19.55,0,0,1,10.08,4.25A12.35,12.35,0,0,1,61.7,59.8c-1.08-.45-1.88-1.18-1.42-2.42s1.53-1.37,2.78-1c4.91,1.48,8.57,0,10.8-4.38,2.06-4,.92-8.22-2.9-11-2.72-2-5.88-2.58-9.07-3.17-1-.19-1.4.49-1.75,1.24A15,15,0,0,1,56.81,44c-1.08,1-2.29,1.62-3.44.37s0-2,.83-2.95c3.1-3.5,5-7.45,3.87-12.29a7.16,7.16,0,0,0-5.91-5.51,57.58,57.58,0,0,1-13.87-4.51,74.69,74.69,0,0,1-6.87-5c-.71-.64-1.08-.51-1.41.33a10.46,10.46,0,0,1-3.59,4.37,25.26,25.26,0,0,0-8.68,11.75c-1.09,3.1-.72,5.81,1.76,8.11A17,17,0,0,0,22.69,41a21.71,21.71,0,0,0,7.79,2.77c1.25.24,2.23.73,2,2.15s-1.41,1.6-2.61,1.39a34.87,34.87,0,0,1-8.63-2.75,23.69,23.69,0,0,1-5.86-5.25,1.37,1.37,0,0,0-2-.38A27.52,27.52,0,0,0,9,41.62C4.33,45.24,2.4,50.42,4.26,56c2.27,6.82,4.83,8.81,11.25,9.76,7.21,1.74,14,.1,20.63-2.63A29.09,29.09,0,0,0,47,55c.75-.86,1.59-1.87,2.8-.86s.83,2.22-.1,3.29l-3.16,3.61A39,39,0,0,0,53.37,63c9.77,2.28,19.62,3,29.45.55,13.3-3.25,22.79-11.53,29.59-23.16a64.49,64.49,0,0,0,7.67-20.07c.23-1.14.88-2.08,2.15-1.84S124,19.69,123.66,21c-4.14,18.19-12.75,33.26-29.82,42.29a48.63,48.63,0,0,1-18.61,5.1c-10.65,1-20.89-1.1-31-4.1a2.84,2.84,0,0,0-2.45.07,42.41,42.41,0,0,1-25,5.58A1.29,1.29,0,0,0,15.59,69.63Z"/><path class="cls-3" d="M131.9,8.43a9.47,9.47,0,0,1-6.64,7.2,2.13,2.13,0,0,1-2.6-.76c-2.78-3.2-2.84-7-.13-11.54a30.45,30.45,0,0,1,2.74-2.24c2.89-1.85,4.29-1.4,5.89,1.77.1.18.21.35.32.52.14.62.27,1.24.41,1.87s.08,1.33.13,2Zm-7.55.46a8,8,0,0,0,0,.86c.07.64-.07,1.45.65,1.75s1.21-.36,1.67-.8a5.56,5.56,0,0,0,1.59-5.26c-.23-1.41-1-1.6-2-.63C125.05,5.93,124.13,7.2,124.35,8.89Z"/><path class="cls-4" d="M132,7.24c-.05-.66-.09-1.33-.13-2C133.21,5.83,133.11,6.5,132,7.24Z"/><path class="cls-4" d="M131.48,3.38c-.11-.17-.22-.34-.32-.52C131.26,3,131.37,3.21,131.48,3.38Z"/><path class="cls-3" d="M99.22,33.89a9.08,9.08,0,0,1,9,7.64A2.54,2.54,0,0,1,107,44.39c-5.17,3.36-13.17-.55-13.76-6.7a2.52,2.52,0,0,1,1.6-2.84A9.38,9.38,0,0,1,99.22,33.89Zm0,3.53c-.87.21-2.33-.29-1.74,1.5s3.83,3.52,5.74,3c1-.27,1.28-.77.71-1.71A5.73,5.73,0,0,0,99.17,37.42Z"/><path class="cls-3" d="M129.6,42.11a9.62,9.62,0,0,1-8.91-5.5,2.51,2.51,0,0,1,.56-3A9.27,9.27,0,0,1,136,36a2.77,2.77,0,0,1-.71,3.7A9.46,9.46,0,0,1,129.6,42.11Zm-1.74-7.6c-1.32.18-3,.09-3.18,1.26s1.38,1.86,2.52,2.34a3.07,3.07,0,0,0,1.54.29c1.23-.18,3.11.24,3.33-1.3.18-1.2-1.43-1.83-2.66-2.18C128.85,34.76,128.28,34.62,127.86,34.51Z"/><path class="cls-3" d="M113.24,29.86c0,2.75-.67,3.53-3.37,3.79A9.17,9.17,0,0,1,99.71,23.58a2.37,2.37,0,0,1,1.84-2.25C107.06,19.44,113.19,23.9,113.24,29.86Zm-8.69-5.19c-1-.08-1.36.22-1,1.37a5.68,5.68,0,0,0,4.84,4.08c.93.07,1.34-.23,1.13-1.26A5.58,5.58,0,0,0,104.55,24.67Z"/><path class="cls-3" d="M119.1,17.62c-.17,1.93-.3,4.72-2.78,5.63s-4.69-.82-6.38-2.68a9.19,9.19,0,0,1-.91-11,2.69,2.69,0,0,1,3.51-1.31A9.36,9.36,0,0,1,119.1,17.62Zm-3.55-.38c0-2.07-1.48-4.47-2.93-5-.43-.15-.69-.14-1,.3-.76,1.16-.39,3.78.83,5.4a.76.76,0,0,0,.11.16c.58.61,1.2,1.51,2.08,1.22S115.51,18,115.55,17.24Z"/><path class="cls-3" d="M133.65,17.31c2.9,0,6.13,1.55,6.61,3.18s-1.44,5.09-3.72,6.58A9.21,9.21,0,0,1,126.13,27a2.7,2.7,0,0,1-1.17-3.7A9.15,9.15,0,0,1,133.65,17.31ZM131.43,25a5.54,5.54,0,0,0,4.62-2.61c.32-.53.11-.85-.38-1.11-1.79-.93-3.44-.43-5,.5a1,1,0,0,0-.16.12c-.75.6-1.93,1.14-1.49,2.25C129.33,25.08,130.55,24.93,131.43,25Z"/><path class="cls-3" d="M121,43a9.07,9.07,0,0,1,9.09,7.72,2.37,2.37,0,0,1-1.34,2.75A9.36,9.36,0,0,1,115,46.87,2.52,2.52,0,0,1,116.67,44,7.58,7.58,0,0,1,121,43Zm2.39,8c2.58,0,3-.48,2.4-1.76a5.61,5.61,0,0,0-5.93-2.48c-.74.26-1.11.51-.57,1.39A5.3,5.3,0,0,0,123.41,50.93Z"/><path class="cls-2" d="M82.13,68.82a28.9,28.9,0,0,1,6,.55,18.92,18.92,0,0,1,4.58,1.55A12.8,12.8,0,0,1,96,73.27a12.26,12.26,0,0,1,2.2,3,13.25,13.25,0,0,1,1.23,3.43,18.24,18.24,0,0,1,.38,3.71,24.49,24.49,0,0,1-.58,5.26,27.24,27.24,0,0,1-1.66,5.16,24.85,24.85,0,0,1-2.69,4.67,19.49,19.49,0,0,1-3.66,3.81,16.9,16.9,0,0,1-4.53,2.57,15,15,0,0,1-5.33.93,13.37,13.37,0,0,1-2-.14,20,20,0,0,1-2-.39c-.63-.17-1.23-.35-1.79-.56a11.7,11.7,0,0,1-1.48-.64,1.38,1.38,0,0,1-.42-.19.76.76,0,0,1-.24-.27.85.85,0,0,1-.1-.38,4.8,4.8,0,0,1,0-.58c0-2.28.05-4.61.17-7a66.08,66.08,0,0,1,.71-7,41.66,41.66,0,0,1,1.55-6.52,21.63,21.63,0,0,1,2.67-5.55,4.85,4.85,0,0,1,2.66-1,2.91,2.91,0,0,1,2.51,1.69,12.81,12.81,0,0,0-1.58,2.84A23,23,0,0,0,81,83.39q-.44,1.71-.72,3.51c-.2,1.19-.38,2.36-.54,3.5s-.35,2.34-.48,3.24S79,95.33,79,96s-.13,1.26-.17,1.77,0,1,0,1.48,0,.94,0,1.28a2,2,0,0,0,.25.83,1.11,1.11,0,0,0,.6.44,3.45,3.45,0,0,0,1.08.13,9.68,9.68,0,0,0,3.91-.81A13.15,13.15,0,0,0,88,98.94a17.31,17.31,0,0,0,2.81-3.19A22,22,0,0,0,93,91.92a22.72,22.72,0,0,0,1.35-4.11,17.88,17.88,0,0,0,.47-4A11.06,11.06,0,0,0,94,79.52a9,9,0,0,0-2.19-3.2,9.53,9.53,0,0,0-3.39-2,13.14,13.14,0,0,0-4.35-.69,27.79,27.79,0,0,0-3.42.2,18.85,18.85,0,0,0-3.15.64A11.34,11.34,0,0,0,75,75.58a4.82,4.82,0,0,0-1.66,1.6q-1.5,2.32-2.47,3.59c-.64.85-1.19,1.27-1.62,1.27-.61,0-.91-.7-.91-2.08a11.66,11.66,0,0,1,.52-3.63,9.62,9.62,0,0,1,1.47-2.85,9.13,9.13,0,0,1,2.22-2.12,13.37,13.37,0,0,1,2.82-1.44,16.66,16.66,0,0,1,3.27-.84A24.18,24.18,0,0,1,82.13,68.82Z"/><path class="cls-2" d="M115.06,86.14a12.87,12.87,0,0,1-.12,1.51c-.09.64-.19,1.34-.32,2.1s-.27,1.55-.43,2.36l-.42,2.26c-.13.7-.23,1.32-.32,1.85a8.67,8.67,0,0,0-.12,1.1c0,.38,0,.74,0,1.06a3.94,3.94,0,0,0,.12.84,1.22,1.22,0,0,0,.32.56.93.93,0,0,0,.63.2,3.49,3.49,0,0,0,1.1-.23,9.93,9.93,0,0,0,1.38-.61c.49-.25,1-.54,1.5-.86s1-.67,1.45-1,.88-.71,1.25-1.06a8,8,0,0,0,.92-1c0,.45,0,.86,0,1.23s0,.73,0,1.06,0,.69,0,1,0,.76,0,1.2a12.06,12.06,0,0,1-1.12,1c-.45.34-.94.68-1.48,1s-1.12.67-1.73,1a20.18,20.18,0,0,1-1.85.83,14.85,14.85,0,0,1-1.83.58,7.5,7.5,0,0,1-1.69.21,2.68,2.68,0,0,1-1.34-.31,2.78,2.78,0,0,1-1-.86,5.19,5.19,0,0,1-.68-1.33,13.16,13.16,0,0,1-.49-1.72,15.89,15.89,0,0,1-1.56,1.78,13.37,13.37,0,0,1-1.68,1.41,8.41,8.41,0,0,1-1.73.94,4.64,4.64,0,0,1-1.7.34,3.63,3.63,0,0,1-1.28-.23,2.58,2.58,0,0,1-1.06-.76,3.9,3.9,0,0,1-.73-1.41,7.46,7.46,0,0,1-.27-2.17,27.9,27.9,0,0,1,.38-4q.39-2.44.94-5.6c0-.21.08-.48.16-.83a11,11,0,0,1,.3-1.15,11.51,11.51,0,0,1,.49-1.25,6,6,0,0,1,.68-1.16,3.45,3.45,0,0,1,.91-.84,2.3,2.3,0,0,1,1.19-.35,4,4,0,0,1,1.56.28c.32.15.48.35.48.58-.13.73-.26,1.54-.4,2.43l-.45,2.7c-.15.91-.29,1.79-.43,2.65s-.26,1.62-.37,2.29-.2,1.22-.26,1.63S104,98,104,98a3.29,3.29,0,0,0,.07.71,2.2,2.2,0,0,0,.22.61,1.19,1.19,0,0,0,.37.43.88.88,0,0,0,.53.16,2,2,0,0,0,.93-.23A3.5,3.5,0,0,0,107,99a4.75,4.75,0,0,0,.75-1.09,5.85,5.85,0,0,0,.49-1.48l2-10.46a1.29,1.29,0,0,1,.84-.83,3.8,3.8,0,0,1,1.65-.34,3.21,3.21,0,0,1,1.67.37A1.1,1.1,0,0,1,115.06,86.14Z"/><path class="cls-2" d="M124.06,104.57a2.88,2.88,0,0,1-2.07-1,8.44,8.44,0,0,1-1.67-2.63,18,18,0,0,1-1.11-3.82,24.73,24.73,0,0,1-.4-4.56,32.05,32.05,0,0,1,.27-4,41.46,41.46,0,0,1,.78-4.44c.34-1.52.75-3.06,1.22-4.59s1-3,1.61-4.43a38.58,38.58,0,0,1,2-4,21.67,21.67,0,0,1,2.2-3.21,10.34,10.34,0,0,1,2.41-2.15A4.8,4.8,0,0,1,131.8,65a2.47,2.47,0,0,1,1.46.4,2.76,2.76,0,0,1,.91,1.06,5.2,5.2,0,0,1,.46,1.49,10.64,10.64,0,0,1,.14,1.7,18.51,18.51,0,0,1-.44,3.94,31.38,31.38,0,0,1-1.2,4c-.5,1.35-1.08,2.71-1.74,4.07s-1.35,2.71-2.06,4-1.43,2.65-2.15,4-1.4,2.56-2,3.8c-.07.14-.14.32-.22.53s-.14.46-.21.72-.14.52-.21.81-.12.57-.16.84v.29a4.42,4.42,0,0,0,.11,1,6.13,6.13,0,0,0,.28.91,2.52,2.52,0,0,0,.35.64.5.5,0,0,0,.35.23,2.85,2.85,0,0,0,.89-.16,9.11,9.11,0,0,0,1.08-.44c.37-.19.76-.4,1.16-.64s.78-.49,1.15-.73c.87-.58,1.77-1.25,2.72-2l1.69,4.32a42,42,0,0,1-3.63,2.35c-.52.29-1.06.57-1.61.86s-1.12.53-1.68.75a12.51,12.51,0,0,1-1.65.52A6.33,6.33,0,0,1,124.06,104.57Zm0-16.48c.62-1.1,1.27-2.33,2-3.7s1.35-2.79,2-4.25a45,45,0,0,0,1.61-4.35,20.32,20.32,0,0,0,.86-4.05q0-.6,0-1c0-.28-.08-.42-.19-.42a1.88,1.88,0,0,0-1.29.77,10.49,10.49,0,0,0-1.38,2.09,24.55,24.55,0,0,0-1.32,3.07c-.42,1.17-.79,2.41-1.12,3.73a37.55,37.55,0,0,0-.78,4.07A30,30,0,0,0,124.08,88.09Z"/><path class="cls-2" d="M137.67,104.57a7.55,7.55,0,0,1-3.32-.7A7,7,0,0,1,132,102a8,8,0,0,1-1.47-2.71,10.83,10.83,0,0,1-.49-3.22,13,13,0,0,1,.25-2.49A14.4,14.4,0,0,1,131,91a13.92,13.92,0,0,1,1.19-2.38,9.77,9.77,0,0,1,1.65-2,7.6,7.6,0,0,1,2.09-1.36,6.71,6.71,0,0,1,4.71-.14,5.18,5.18,0,0,1,1.71,1,4.62,4.62,0,0,1,1.11,1.51,4.42,4.42,0,0,1,.4,1.89,4.92,4.92,0,0,1-.19,1.37,4,4,0,0,1-.54,1.23,3,3,0,0,1-.88.88,2.08,2.08,0,0,1-1.15.32,1.35,1.35,0,0,1-1.27-.51,2.83,2.83,0,0,1-.3-1.42,7,7,0,0,1,0-.78c0-.28,0-.53,0-.74a2.78,2.78,0,0,0-.11-.83.43.43,0,0,0-.45-.33,2.59,2.59,0,0,0-1.44.4,3.65,3.65,0,0,0-1,1,5.65,5.65,0,0,0-.67,1.47,13.94,13.94,0,0,0-.39,1.61,12.67,12.67,0,0,0-.19,1.54c0,.48,0,.89,0,1.22a9.4,9.4,0,0,0,.14,1.55,4.57,4.57,0,0,0,.5,1.47,3.16,3.16,0,0,0,1,1.11,2.78,2.78,0,0,0,1.65.44,4.92,4.92,0,0,0,2.18-.6,15.36,15.36,0,0,0,2.4-1.54,23.15,23.15,0,0,0,2.3-2,27.35,27.35,0,0,0,1.87-2.1l1.42,2.39a27,27,0,0,1-3.34,3.94,21.54,21.54,0,0,1-1.65,1.44,15.25,15.25,0,0,1-1.88,1.24,10.87,10.87,0,0,1-2,.89A6.86,6.86,0,0,1,137.67,104.57Z"/><path class="cls-2" d="M153.43,104.57a7.83,7.83,0,0,1-3.39-.7,7,7,0,0,1-2.42-1.89,7.91,7.91,0,0,1-1.45-2.74,10.63,10.63,0,0,1-.49-3.26,14.22,14.22,0,0,1,.23-2.44A13.83,13.83,0,0,1,146.6,91a13.6,13.6,0,0,1,1.16-2.36,9.61,9.61,0,0,1,1.64-2,7.8,7.8,0,0,1,2.1-1.36,6.57,6.57,0,0,1,2.59-.5,6,6,0,0,1,2.14.37,5.24,5.24,0,0,1,1.72,1,4.71,4.71,0,0,1,1.14,1.62A5.14,5.14,0,0,1,159.5,90a5.71,5.71,0,0,1-.63,2.55,9.32,9.32,0,0,1-1.74,2.41,12.12,12.12,0,0,1-2.64,2,14.24,14.24,0,0,1-3.33,1.38,6.37,6.37,0,0,0,.61.92,2.73,2.73,0,0,0,.61.58,1.81,1.81,0,0,0,.65.29,3.26,3.26,0,0,0,.73.08,7.63,7.63,0,0,0,2.6-.49A16.92,16.92,0,0,0,159,98.47a22.68,22.68,0,0,0,4.41-3.27L166.09,98a27.1,27.1,0,0,1-3.85,3.31c-.59.41-1.22.82-1.9,1.22a17.17,17.17,0,0,1-2.15,1.06,14.94,14.94,0,0,1-2.32.74A10.62,10.62,0,0,1,153.43,104.57Zm-2.74-9.68a4.12,4.12,0,0,0,1.61-.38,7.28,7.28,0,0,0,1.63-1,7.07,7.07,0,0,0,1.27-1.3,2.31,2.31,0,0,0,.51-1.36,3,3,0,0,0-.34-1.52,1,1,0,0,0-.83-.6,3.18,3.18,0,0,0-1.51.33,3.43,3.43,0,0,0-1.06.86,4.61,4.61,0,0,0-.68,1.19,8.58,8.58,0,0,0-.39,1.35,10.38,10.38,0,0,0-.17,1.32C150.7,94.22,150.69,94.59,150.69,94.89Z"/><path class="cls-2" d="M108.06,71.59c-.09.09-.2.2-.34.32s-.28.23-.45.35-.36.23-.55.35l-.6.3c-.21.08-.41.15-.62.21a2.44,2.44,0,0,1-.59.07,1.18,1.18,0,0,1-.41-.07.87.87,0,0,1-.37-.25,1.36,1.36,0,0,1-.27-.51,2.8,2.8,0,0,1-.11-.84,3.89,3.89,0,0,1,0-.47c0-.17,0-.36.08-.55a7.22,7.22,0,0,1-.79,1.25,5.27,5.27,0,0,1-.94.9,4,4,0,0,1-1,.56,3.32,3.32,0,0,1-1.06.18,3,3,0,0,1-1.11-.2,2.55,2.55,0,0,1-.92-.61,2.92,2.92,0,0,1-.64-1,4,4,0,0,1-.23-1.4,6.33,6.33,0,0,1,.14-1.27,7.89,7.89,0,0,1,.41-1.34,11,11,0,0,1,.65-1.34A10.85,10.85,0,0,1,99.22,65a9.27,9.27,0,0,1,1.07-1.1,7.13,7.13,0,0,1,1.23-.89,7,7,0,0,1,1.38-.58,5.45,5.45,0,0,1,1.51-.21,1.52,1.52,0,0,1,.34,0,.46.46,0,0,1,.2.09.21.21,0,0,1,.08.11.44.44,0,0,1,0,.1v0a.08.08,0,0,0,0,0v0a1,1,0,0,0,.35.13l.34,0a1.14,1.14,0,0,1,.32.07.53.53,0,0,1,.26.19,1.07,1.07,0,0,1,.18.43,3.2,3.2,0,0,1,.07.77,5.37,5.37,0,0,1-.08.84,9.9,9.9,0,0,1-.19,1c-.08.34-.16.69-.26,1s-.2.69-.3,1-.19.64-.28.93-.17.55-.23.77,0,.35,0,.51,0,.32,0,.49,0,.24,0,.33a.77.77,0,0,0,0,.2.23.23,0,0,0,.07.11.18.18,0,0,0,.11,0,1.24,1.24,0,0,0,.32-.07,3.18,3.18,0,0,0,.4-.17l.45-.23.45-.26.41-.23.31-.18Zm-3-8.08a1.8,1.8,0,0,0-.45-.09l-.46,0a2.69,2.69,0,0,0-1,.19,4.55,4.55,0,0,0-1,.53,5.93,5.93,0,0,0-.89.79,9.19,9.19,0,0,0-.78,1A8.11,8.11,0,0,0,99.9,67a9.25,9.25,0,0,0-.51,1.12,8.38,8.38,0,0,0-.33,1.09,5.06,5.06,0,0,0-.11,1,2.35,2.35,0,0,0,.35,1.37,1.29,1.29,0,0,0,1.1.48,2.05,2.05,0,0,0,.88-.19,3,3,0,0,0,.77-.51,5,5,0,0,0,.66-.71,7.34,7.34,0,0,0,.52-.81,6.64,6.64,0,0,0,.36-.78,4.08,4.08,0,0,0,.21-.66Z"/><path class="cls-2" d="M108.75,73a.92.92,0,0,1-.63-.29,2.67,2.67,0,0,1-.5-.8,5,5,0,0,1-.34-1.16,7.74,7.74,0,0,1-.12-1.39,8.86,8.86,0,0,1,.08-1.21,11.49,11.49,0,0,1,.24-1.34,14.47,14.47,0,0,1,.37-1.4,13.23,13.23,0,0,1,.49-1.34,10.45,10.45,0,0,1,.59-1.21,5.69,5.69,0,0,1,.67-1,3,3,0,0,1,.73-.66,1.41,1.41,0,0,1,.77-.23.79.79,0,0,1,.45.12.84.84,0,0,1,.27.32,1.25,1.25,0,0,1,.14.45,3,3,0,0,1,0,.52,5.58,5.58,0,0,1-.13,1.2,9.86,9.86,0,0,1-.36,1.22c-.16.41-.33.82-.53,1.24s-.41.82-.63,1.23-.43.8-.65,1.2-.42.78-.62,1.15a1.38,1.38,0,0,0-.06.16A1.42,1.42,0,0,0,109,70l-.06.25a2.21,2.21,0,0,0,0,.25v.09a1.73,1.73,0,0,0,0,.32,1.71,1.71,0,0,0,.09.27,1.23,1.23,0,0,0,.1.2.2.2,0,0,0,.11.07,1,1,0,0,0,.27,0l.33-.14.35-.19.35-.22c.26-.18.54-.38.83-.61l.51,1.31a12.88,12.88,0,0,1-1.1.72l-.49.26c-.17.08-.34.16-.51.22a3.6,3.6,0,0,1-.5.16A1.94,1.94,0,0,1,108.75,73Zm0-5c.19-.33.39-.71.6-1.13s.41-.84.59-1.28.35-.89.49-1.33A5.54,5.54,0,0,0,110.7,63a2.91,2.91,0,0,0,0-.31q0-.12-.06-.12a.55.55,0,0,0-.39.23,3.22,3.22,0,0,0-.42.64,7,7,0,0,0-.4.93c-.12.35-.24.73-.34,1.13a9.89,9.89,0,0,0-.23,1.23A8.94,8.94,0,0,0,108.76,68Z"/><path class="cls-2" d="M113.54,72.34a3.17,3.17,0,0,1-.71.48,1.61,1.61,0,0,1-.71.19,1.55,1.55,0,0,1-1.08-.48,1.64,1.64,0,0,1-.36-.55,2.17,2.17,0,0,1-.13-.74,4.11,4.11,0,0,1,.13-1,4.88,4.88,0,0,1,.37-1,4.69,4.69,0,0,1,.54-.89,4.5,4.5,0,0,1,.7-.74,3.45,3.45,0,0,1,.79-.49,1.94,1.94,0,0,1,.84-.19.37.37,0,0,1,.23.06.53.53,0,0,1,.13.13,1.71,1.71,0,0,1,.11.14.29.29,0,0,0,.12.1l.15,0h.45l.17,0a.31.31,0,0,1,.15.08.38.38,0,0,1,.09.18,1.08,1.08,0,0,1,0,.3,4.21,4.21,0,0,1,0,.44c0,.18,0,.39-.07.61l-.09.72c0,.25-.08.5-.11.74-.09.58-.19,1.19-.3,1.85.12-.08.26-.16.4-.27a3.35,3.35,0,0,0,.49-.42,7,7,0,0,0,.6-.66q.33-.39.75-1l.29,1.39a2.35,2.35,0,0,1-.29.4c-.11.13-.25.27-.39.41l-.45.39-.46.36c-.35.27-.74.52-1.14.77-.08.45-.18.88-.29,1.31a8.29,8.29,0,0,1-.38,1.19,6.81,6.81,0,0,1-.51,1,3.69,3.69,0,0,1-.64.8,2.72,2.72,0,0,1-.8.51,2.46,2.46,0,0,1-1,.19,2.68,2.68,0,0,1-.46,0,1.23,1.23,0,0,1-.45-.17,1,1,0,0,1-.35-.38,1.33,1.33,0,0,1-.14-.65,1.64,1.64,0,0,1,.15-.63,3.86,3.86,0,0,1,.39-.75c.17-.26.37-.53.59-.81s.48-.56.75-.84.55-.55.85-.83.59-.53.89-.77Zm-2.31,5.26a.87.87,0,0,0,.5-.16,1.78,1.78,0,0,0,.43-.4,4,4,0,0,0,.36-.57,5.3,5.3,0,0,0,.28-.65,6.38,6.38,0,0,0,.22-.66c.06-.21.1-.4.14-.57a4.25,4.25,0,0,0-.5.39,5.75,5.75,0,0,0-.5.49c-.16.17-.31.35-.45.53s-.27.36-.38.53a3.28,3.28,0,0,0-.26.47,1,1,0,0,0-.09.37C111,77.52,111.06,77.6,111.23,77.6Zm.92-6.63a1.53,1.53,0,0,0,0,.3.89.89,0,0,0,.07.26.58.58,0,0,0,.15.19.4.4,0,0,0,.24.07.53.53,0,0,0,.42-.2,1.93,1.93,0,0,0,.33-.48,4.07,4.07,0,0,0,.22-.58c0-.2.09-.37.11-.5l.38-1.84a1,1,0,0,0-.5.13,1.65,1.65,0,0,0-.46.35,2.92,2.92,0,0,0-.4.5,3.66,3.66,0,0,0-.31.59,2.8,2.8,0,0,0-.2.62A2.53,2.53,0,0,0,112.15,71Z"/><path class="cls-2" d="M120.6,68.31a3.35,3.35,0,0,1,.27.77,3.44,3.44,0,0,1,.09.77,3.81,3.81,0,0,1-.08.74,3.9,3.9,0,0,1-.24.73,3.21,3.21,0,0,1-.37.65,2.63,2.63,0,0,1-.51.54,2.36,2.36,0,0,1-.62.35,2,2,0,0,1-.72.13,1.75,1.75,0,0,1-.94-.24,1.93,1.93,0,0,1-.64-.63,2.72,2.72,0,0,1-.37-.87,4.77,4.77,0,0,1-.11-1,4,4,0,0,1,.2-1.28,3.2,3.2,0,0,1,.59-1,2.67,2.67,0,0,1,.95-.7,2.94,2.94,0,0,1,1.25-.25,3.4,3.4,0,0,1,1.11.18,4.24,4.24,0,0,1,1,.5,5.17,5.17,0,0,1,.85.71,9.18,9.18,0,0,1,.72.82l-.11.89a4,4,0,0,0-.46-.49,7.91,7.91,0,0,0-.61-.52l-.63-.47-.54-.37Zm-1.94,3.48a.59.59,0,0,0,.42-.21,2.26,2.26,0,0,0,.35-.55,3.8,3.8,0,0,0,.24-.72,3.49,3.49,0,0,0,.09-.76,4.56,4.56,0,0,0,0-.54,1.81,1.81,0,0,0-.14-.43.69.69,0,0,0-.22-.28.52.52,0,0,0-.33-.11.69.69,0,0,0-.49.22,2.25,2.25,0,0,0-.41.56,3.51,3.51,0,0,0-.27.75,3.25,3.25,0,0,0-.1.8,1.94,1.94,0,0,0,0,.49,1.11,1.11,0,0,0,.15.4.86.86,0,0,0,.29.28A.76.76,0,0,0,118.66,71.79Z"/></g></g></svg>