<svg xmlns="http://www.w3.org/2000/svg" viewBox="0 0 246.48 183.54"><defs><style>.cls-1{fill:#fff;}.cls-2,.cls-4,.cls-5{fill:#bf7f85;}.cls-3{fill:#fef8e8;}.cls-4{font-size:62.59px;}.cls-4,.cls-5{font-family:Pacifico-Regular, Pacifico;}.cls-5{font-size:19.01px;}</style></defs><g id="Capa_2" data-name="Capa 2"><g id="Capa_2-2" data-name="Capa 2"><path class="cls-1" d="M12.22,72.36c7.57-14.65,16.71-15,16.71-15A32.51,32.51,0,0,1,41.22,31c13.55-10.62,8-24.75,8-24.75s15.5,17.08,30.5,19.43,22.76,29.36,8.5,42c9.87-12.18,21.87-4,21.87-4s10.5,26.81-10.5,28.6c10.13,1.5,5.75,24.75,1.75,46.13S67.25,155.93,41.22,151c-15.5-12.5-20.61-53.79-20.61-53.79S4.64,87,12.22,72.36Z"/><path class="cls-2" d="M23.14,103.33l-1.22-.12c-.91-.31-1.82-.66-2.75-.92-1.12-.3-1.5.23-1.12,1.25,1.2,3.29,1.92,6.77,3.83,9.79l0,0A3.66,3.66,0,0,0,23,116.43c3.76,11.29,8.37,22.17,15.36,31.89,2,2.73,4.6,3.87,8.07,4,11.43.29,22.69-1.26,34-2.63,5-.6,8-4,10.14-8.13,4.76-9.16,8.25-18.85,11.61-28.6.62-1.79,0-2.26-1.57-2.53-4.43-.81-5.55-.2-6.77,4.08-2.33,8.2-3.82,16.62-6.56,24.7a23.83,23.83,0,0,1-1.9,4.29c-.87,1.52-2.16,2.61-4.11,2.17a3.74,3.74,0,0,1-2.94-3.28,39.91,39.91,0,0,1-.16-10.86c.54-6.94,1.14-13.86,1-20.84,0-2.49-1.31-3.74-3.55-3.75-2.43,0-2.52,2-2.56,3.84-.17,7.36-.29,14.71-.52,22.07a29.62,29.62,0,0,1-1.75,9.5c-.94,2.49-2.35,4.64-5.47,4.49s-4.24-2.58-4.85-5.12c-1.31-5.44-1.5-11-1.94-16.6A74.78,74.78,0,0,0,56.61,112c-1-4-2.36-4.57-6.41-3.68-1.94.43-2.13,1.43-1.73,2.93a158.56,158.56,0,0,1,3.78,19.3c.63,4.55,1.42,9.13.24,13.72-1.1,4.29-4.37,5.5-8,3-3.32-2.29-5.57-5.53-7.5-8.94a122.11,122.11,0,0,1-11-26.59c-.54-1.9-.8-3.67,1.51-4.28s3.22,1.08,3.77,3.07a96.9,96.9,0,0,0,12.13,27.63c1,1.49,2,4.11,3.67,3.55s.46-3.12.35-4.83c-.57-8.53-2.39-16.85-4.33-25.15-1.15-5,.23-7.19,5.05-8.47a29.68,29.68,0,0,1,4.94-.63c3.42-.32,5.61,1.35,7.12,4.16,2.51,4.71,2.93,9.92,3.48,15.08.63,6,.6,12.1,2.07,18.64a33.14,33.14,0,0,0,1.53-10.05c.17-6.57,0-13.16.17-19.73.19-7.9,6.63-11.47,13.53-7.67,2.74,1.5,3.33,4.06,3.37,6.73.1,5.69.39,11.38-.48,17a7.9,7.9,0,0,0,.36,3.59c1.68-6.56,3.34-13.12,5-19.67.78-3,2.58-5.14,5.73-5.61a20.52,20.52,0,0,1,7.33.13c6.62,1.42,8.05,1.21,5.18,9-3.5,9.48-7,18.94-11.25,28.12-3.91,8.46-10.49,12.62-19.82,13.32-9.87.75-19.68,1.95-29.62,1.93A15.51,15.51,0,0,1,33,150.17c-2-3-3.83-6.14-5.74-9.22A284,284,0,0,1,12,101.88c-.77-2.46-2.59-3.84-4.2-5.5-8-8.2-10.14-21.25-4.88-30.71,3.2-5.76,8.15-9.74,14-12.49,2.28-1.07,3.21-2.31,3.43-5,.65-7.65,4.83-13.75,9.83-19.26,2-2.24,4.49-4.07,6.71-6.14,3.56-3.32,4-5.46,1.86-9.85-.85-1.73-.65-3.08.91-4s2.85-.17,4,1.23A53.89,53.89,0,0,0,59.56,23.36a15.84,15.84,0,0,0,2.19.8c4.2,2.93,9.06,4.08,14,4.88,8.69,1.41,14.37,6.32,16,14.22a14.39,14.39,0,0,1,.24,4.67c-.35,2.55,1,3.2,3.09,3.47a29.1,29.1,0,0,1,15,6.31c6.81,5.49,8.5,15.12,3.89,23.07s-14.22,11.37-22.3,8c-1.61-.68-2.8-1.76-2.12-3.59s2.27-2,4.14-1.47c7.27,2.19,12.7,0,16-6.5,3.06-5.93,1.37-12.2-4.3-16.28-4-2.89-8.73-3.82-13.46-4.7-1.52-.28-2.08.73-2.59,1.85a22.44,22.44,0,0,1-5,7.24c-1.6,1.49-3.41,2.41-5.11.55s0-3,1.23-4.38c4.6-5.19,7.43-11.06,5.74-18.24-1.08-4.63-4.42-7.26-8.76-8.18a85.39,85.39,0,0,1-20.59-6.69c-3.41-2.45-7.07-4.56-10.19-7.4-1.05-1-1.61-.76-2.1.49a15.31,15.31,0,0,1-5.33,6.47A37.55,37.55,0,0,0,26.33,45.37c-1.62,4.6-1.08,8.62,2.6,12a24.87,24.87,0,0,0,4.75,3.39,32.21,32.21,0,0,0,11.55,4.1c1.86.36,3.31,1.09,3,3.2s-2.1,2.37-3.88,2.07A52.43,52.43,0,0,1,31.5,66.07a35.31,35.31,0,0,1-8.69-7.79c-.95-1.23-1.81-1.18-3-.57a40.78,40.78,0,0,0-6.44,4.06c-6.93,5.37-9.79,13-7,21.33C9.69,93.21,13.48,96.16,23,97.58c10.7,2.58,20.76.14,30.62-3.91a43.19,43.19,0,0,0,16.15-12c1.12-1.28,2.36-2.78,4.17-1.28s1.23,3.29-.16,4.88l-4.68,5.37a57.69,57.69,0,0,0,10.09,2.79c14.5,3.39,29.11,4.39,43.69.83,19.75-4.83,33.83-17.12,43.91-34.37A95.8,95.8,0,0,0,178.2,30.1c.34-1.7,1.31-3.1,3.19-2.73s2.57,1.86,2.12,3.82c-6.14,27-18.92,49.37-44.26,62.76-8.58,4.53-17.92,6.72-27.6,7.58-15.81,1.4-31-1.64-46-6.09a4.26,4.26,0,0,0-3.64.1,62.8,62.8,0,0,1-37,8.28A1.94,1.94,0,0,0,23.14,103.33Z"/><path class="cls-2" d="M195.74,12.5a14.07,14.07,0,0,1-9.85,10.7A3.18,3.18,0,0,1,182,22.07c-4.12-4.75-4.21-10.41-.19-17.13a42.85,42.85,0,0,1,4.07-3.33c4.29-2.74,6.35-2.07,8.73,2.64l.48.76c.2.93.4,1.85.61,2.78s.12,2,.19,3Zm-11.2.69a10.7,10.7,0,0,0,0,1.28c.11.95-.1,2.14,1,2.59s1.79-.53,2.48-1.18a8.21,8.21,0,0,0,2.35-7.8c-.34-2.1-1.52-2.37-3-.94C185.57,8.81,184.22,10.68,184.54,13.19Z"/><path class="cls-3" d="M195.12,5l-.48-.76Z"/><path class="cls-2" d="M147.25,50.3c6.84.08,12,4.51,13.39,11.33a3.77,3.77,0,0,1-1.88,4.24c-7.67,5-19.55-.8-20.42-9.94a3.77,3.77,0,0,1,2.37-4.22A13.92,13.92,0,0,1,147.25,50.3Zm-.08,5.23c-1.29.32-3.46-.43-2.59,2.23s5.7,5.22,8.53,4.47c1.54-.41,1.9-1.15,1.06-2.54A8.54,8.54,0,0,0,147.17,55.53Z"/><path class="cls-2" d="M192.32,62.49c-6.1,0-11.25-3.5-13.22-8.16a3.73,3.73,0,0,1,.83-4.52c6.35-6.52,17.86-4.62,21.87,3.63a4.12,4.12,0,0,1-1.05,5.5A14.16,14.16,0,0,1,192.32,62.49Zm-2.58-11.27c-2,.25-4.45.13-4.72,1.86s2.06,2.77,3.75,3.48a4.57,4.57,0,0,0,2.28.42c1.83-.25,4.62.37,4.95-1.92.26-1.79-2.12-2.72-3.95-3.23C191.21,51.59,190.37,51.38,189.74,51.22Z"/><path class="cls-2" d="M168.05,44.32c0,4.07-1,5.23-5,5.61A13.59,13.59,0,0,1,148,35a3.54,3.54,0,0,1,2.73-3.35C158.88,28.85,168,35.47,168.05,44.32Zm-12.89-7.71c-1.47-.12-2,.33-1.49,2a8.45,8.45,0,0,0,7.18,6.05c1.39.1,2-.34,1.68-1.87C161.86,39.61,158.41,36.61,155.16,36.61Z"/><path class="cls-2" d="M176.75,26.15c-.25,2.87-.44,7-4.14,8.35s-6.94-1.21-9.45-4a13.65,13.65,0,0,1-1.36-16.34A4,4,0,0,1,167,12.24C173,14.16,176.74,19.26,176.75,26.15Zm-5.27-.57c0-3.06-2.19-6.63-4.35-7.39-.63-.23-1-.22-1.44.43-1.13,1.72-.58,5.61,1.23,8a1.67,1.67,0,0,0,.16.24c.87.91,1.78,2.23,3.09,1.81S171.43,26.64,171.48,25.58Z"/><path class="cls-2" d="M198.34,25.68c4.3,0,9.1,2.3,9.8,4.73S206,38,202.63,40.18a13.7,13.7,0,0,1-15.45-.08c-2.17-1.42-2.66-3.08-1.73-5.49A13.6,13.6,0,0,1,198.34,25.68ZM195,37.16a8.2,8.2,0,0,0,6.86-3.88c.48-.77.16-1.26-.56-1.64-2.66-1.39-5.1-.64-7.49.74a1.81,1.81,0,0,0-.23.18c-1.12.89-2.86,1.7-2.22,3.33C191.92,37.22,193.73,37,195,37.16Z"/><path class="cls-2" d="M179.59,63.74a13.46,13.46,0,0,1,13.5,11.46,3.54,3.54,0,0,1-2,4.08,13.89,13.89,0,0,1-20.4-9.72c-.35-2.15.79-3.39,2.44-4.22C175.24,64.27,177.45,63.44,179.59,63.74Zm3.56,11.85c3.83,0,4.49-.72,3.56-2.62-1.33-2.73-6-4.66-8.81-3.68-1.1.38-1.65.76-.85,2.06C178.72,74.07,181,75.52,183.15,75.59Z"/><text class="cls-4" transform="translate(105.1 155.18)">Dulce</text><text class="cls-5" transform="translate(142.99 108.32)">Algo</text></g></g></svg>