<?xml version="1.0" encoding="utf-8"?>
<!-- Generator: Adobe Illustrator 25.4.1, SVG Export Plug-In . SVG Version: 6.00 Build 0)  -->
<svg version="1.1" id="Capa_1" xmlns="http://www.w3.org/2000/svg" xmlns:xlink="http://www.w3.org/1999/xlink" x="0px" y="0px"
	 viewBox="0 0 300 100" style="enable-background:new 0 0 300 100;" xml:space="preserve">
<style type="text/css">
	.st0{fill:#860052;}
	.st1{fill:#FCAF17;}
</style>
<path class="st0" d="M33.6,57.5l4.1-11l3.9,11.1L33.6,57.5L33.6,57.5z M45.6,68.8h3.8L39.6,42h-3.7L25.7,68.8h3.8l3-8.2h10.2
	L45.6,68.8z M63.4,63.1c0,2.2-1.8,3.3-4.8,3.3c-2.5,0-4-0.7-5-2.3L50,64.7c1.4,2.9,4.3,4.2,8.4,4.2c5.6,0,8.5-3.1,8.5-6.4
	c0-4.2-3.9-5.3-8.4-6.3c-2.2-0.4-4.7-1.2-4.7-3.2c0-1.4,1.3-3,4-3c2.7,0,4.4,1.8,4.6,2.6l3.2-1.3c-1.5-2.8-4.4-3.9-7.4-3.9
	c-4.7,0-7.8,2.3-7.8,6c0,4.2,3.6,5,7.1,5.8C60.6,60.1,63.4,60.8,63.4,63.1z M74.5,42L71,43.5v4.9h-3.2v2.8H71v13.1
	c-0.1,2.6-0.1,4.6,3.9,4.6c1.3,0,2.7-0.3,3.3-0.4v-2.7c-0.7,0.2-1.6,0.4-2.2,0.4c-1.5,0-1.5-1.1-1.5-3.4V51.2h3.7v-2.8h-3.7L74.5,42
	L74.5,42z M81.2,48.4v20.3h3.4v-9.4c0-1.8-0.1-3.8,0.9-5.3c1.1-1.8,2.7-2.5,6.1-2.5v-3.5c-1.4,0.1-5,0.1-6.9,3.9v-3.6
	C84.7,48.4,81.2,48.4,81.2,48.4z M111.7,42v3.3H127l-15.2,20v3.5h19.5v-3.2h-15.5L131,45.4v-3.3L111.7,42L111.7,42z M152.8,48.4
	v20.3h3.4V57.2c0-1.5,0-3.1,1.5-4.6c1.1-1.1,2.4-1.6,3.9-1.6c1.8,0,3.8,0.9,4.4,2.8c0.2,0.7,0.2,1.3,0.2,3.3v11.5h3.4V56.8
	c0-1.8,0-3-0.4-4.1c-1-3.3-4.1-4.6-6.7-4.6c-1.2,0-4.5,0.3-6.3,3.6v-3.1L152.8,48.4L152.8,48.4z M205.7,63.9c-0.7,1.4-2,2.6-4.7,2.6
	c-2.3,0-6.1-1.4-6.1-8.2c0-1.8,0.4-8.2,6-8.2c2.8,0,4.1,1.6,4.7,2.9l3.2-1.3c-1.9-3.2-5.5-4-8.1-4c-6.5,0-9.6,5.2-9.6,11
	c0,5,2.7,10.5,9.9,10.5c4.1,0,6.5-2,7.7-4L205.7,63.9z M136.3,56.5h10.8c-0.3-5.3-3.3-6.2-5.4-6.2C138.7,50.3,136.7,52.4,136.3,56.5
	z M149.9,64.9c-1.1,2-3.4,4.2-7.8,4.2c-6,0-9.5-4-9.5-10.9c0-7.6,5-10.5,9.3-10.5c3.8,0,7.3,2.1,8.5,7.2c0.4,1.8,0.4,3.2,0.4,4.1
	h-14.6c-0.1,3.4,1.3,7.7,6.1,7.6c1.9,0,3.3-1,4.2-2.3L149.9,64.9z M175.1,56.5h10.8c-0.3-5.3-3.3-6.2-5.4-6.2
	C177.5,50.3,175.5,52.4,175.1,56.5z M188.6,64.9c-1.1,2-3.4,4.2-7.8,4.2c-6,0-9.5-4-9.5-10.9c0-7.6,5-10.5,9.3-10.5
	c3.8,0,7.3,2.1,8.5,7.2c0.4,1.8,0.4,3.2,0.4,4.1h-14.6c-0.1,3.4,1.3,7.7,6.1,7.6c1.9,0,3.3-1,4.2-2.3L188.6,64.9z M227.5,68.8h-3.6
	c0,0-0.4-1.4-0.4-3c-1.1,1.1-3,3.2-6.8,3.2c-3.9,0-6.8-2.4-6.8-5.8c0-1.1,0.3-2.2,0.9-3.1c1.1-1.8,3.3-3.1,9.4-3.6l3.2-0.3v-0.5
	c0-2.1,0-5.6-4.6-5.6c-2.8,0-3.9,1.4-4.1,2.6l-3.2-1.3c0.1-0.1,0.1-0.3,0.2-0.4c1.2-2.2,3.6-3.6,7-3.6c1.8,0,4.3,0.4,5.9,1.8
	c2.3,1.8,2.2,5.1,2.2,5.1l0.2,10.4C226.8,64.9,227,67.9,227.5,68.8z M222.7,63.2c0.5-1.1,0.5-1.6,0.5-4.6c-1.3,0.2-3.2,0.4-5.3,1
	c-3.8,0.8-4.4,2.3-4.4,3.7c0,1.7,1.3,3,3.9,3C219.7,66.2,221.8,65.3,222.7,63.2z M109.4,68.8h-3.5c0,0-0.4-1.4-0.4-3
	c-1.1,1.1-3,3.2-6.8,3.2c-3.9,0-6.9-2.4-6.9-5.8c0-1.1,0.3-2.2,0.9-3.1c1.1-1.8,3.3-3.1,9.4-3.6l3.2-0.3v-0.5c0-2.1,0-5.6-4.6-5.6
	c-2.9,0-3.9,1.4-4.1,2.6l-3.2-1.3c0.1-0.1,0.1-0.3,0.2-0.4c1.2-2.2,3.6-3.6,7-3.6c1.8,0,4.3,0.4,5.9,1.8c2.3,1.8,2.2,5.1,2.2,5.1
	l0.1,10.4C108.8,64.9,108.9,67.9,109.4,68.8z M104.7,63.2c0.5-1.1,0.5-1.6,0.5-4.6c-1.3,0.2-3.2,0.4-5.3,1c-3.8,0.8-4.4,2.3-4.4,3.7
	c0,1.7,1.3,3,3.9,3C101.7,66.2,103.7,65.3,104.7,63.2z"/>
<path class="st1" d="M249.6,51.7c-0.5,0.4-1.1,0.7-1.6,1.1c-6.1-3.4-19.3-10-20.4-10.5c-1.2-0.6-3.3-1.5-3.1-3.5
	c0.4-2.8,5.3-9,7.5-11.7c11.4-13.9,16.5-18.1,19.8-17.7c3.6,0.4,5.6,4.2,5.9,21.6c-2-0.6-4.2-1.2-6.6-1.8c-0.2-2.5-0.7-6.3-0.9-7.6
	c-0.2-1.5-0.5-2-1.1-2.1c-0.7-0.1-2.4,1.5-3.9,3.1c-0.7,0.7-2.6,2.6-4.7,4.8c-1.8-0.1-3,0.3-3.6,1.1c-0.5,0.7-0.6,1.7-0.4,2.9
	c-1.1,1.1-2.1,2.1-2.8,2.8c-2.4,2.4-4.9,4.3-5,5.3c-0.1,0.8,1.1,1.6,2.8,2.6C235.7,44.1,246,49.7,249.6,51.7z M265.6,34.3
	c-4-1.4-13.9-5.1-24.4-6.5c-3.6-0.4-5,0.8-3.6,4.2c1.5,3.4,5.3,9,9.2,13.3c3.9,4.2,8.2,5.3,9.6-1.1c0.1-0.3,0.1-0.4,0.2-0.7
	c0.4-1.7,0.6-3.3,0.7-4.7c-1.8-0.8-3.8-1.7-5.7-2.5c0.1,1.5,0.3,4.1,0.4,6c0,0.3,0,0.5,0,0.7c0.1,3.2-1,3.2-2.8,1.9
	c-2.1-1.5-8.7-10.2-9.5-14c0-0.3,0.1-0.3,0.2-0.2c0.1,0,0.1,0,0.2,0.1l0,0l0,0c1.5,0.6,6.4,2.5,11.4,4.6c2,0.9,4,1.7,5.8,2.5
	c1.8,0.8,3.3,1.6,4.6,2.2c2.2,1.1,3,1.9,2.1,2.9c-4.5,4.6-20.2,11-25.7,19.1c0,0,0,0-0.1,0.1c-0.1,0.1-0.1,0.2-0.2,0.3
	c0,0,0,0.1-0.1,0.1c-0.3,0.5-0.6,1.3-0.8,2.4c-0.3,1.8,0.7,3.3,3.2,4c0.6,0.2,1.3,0.4,2.1,0.4c0.2,0,0.3,0,0.4,0
	c4.8,0.3,17.4-2.5,21.2-4.2c3.9-1.8,2.8-3.5,1.7-4.4c-0.9-0.7-5.3-3.2-7.4-4.3c-0.6,0.4-1.1,0.6-1.6,1.1c3.6,2.2,5.1,3.3,6,3.9
	c0.4,0.3,0.2,0.5-0.4,0.6c-0.1,0-0.3,0-0.4,0c-3.4,0.3-10,0.7-13.1,0.9c-0.4,0-1,0.1-1.2,0.1c0.8-0.7,1.6-1.3,2-1.7
	c6.6-4.6,17.5-11.1,20.8-13.9C273,45.4,279.5,39.1,265.6,34.3z"/>
</svg>
