<?xml version="1.0" encoding="utf-8"?>
<!-- Generator: Adobe Illustrator 25.4.1, SVG Export Plug-In . SVG Version: 6.00 Build 0)  -->
<svg version="1.1" id="Capa_1" xmlns="http://www.w3.org/2000/svg" xmlns:xlink="http://www.w3.org/1999/xlink" x="0px" y="0px"
	 viewBox="0 0 300 100" style="enable-background:new 0 0 300 100;" xml:space="preserve">
<style type="text/css">
	.st0{fill:#18ACE0;}
	.st1{fill:#2FB4E1;}
	.st2{fill:#3BB8E3;}
	.st3{fill:#47BDE7;}
	.st4{fill:#53C1E9;}
	.st5{fill:#5FC6E9;}
	.st6{fill:#6BCAEB;}
	.st7{fill:#77D1EE;}
	.st8{fill:#86D4EB;}
	.st9{fill:#92D8EE;}
	.st10{clip-path:url(#SVGID_00000031167857281526763820000006597932762544719293_);fill:#A0DCEF;}
	.st11{clip-path:url(#SVGID_00000031167857281526763820000006597932762544719293_);fill:#AEE0EF;}
	.st12{clip-path:url(#SVGID_00000031167857281526763820000006597932762544719293_);fill:#E72542;}
	.st13{fill:#E72542;}
</style>
<g>
	<path class="st0" d="M240.8,76.7h-3c-0.7,0-1.1,0.5-1.1,1.5c0,0.9,0.4,1.5,1.1,1.5h11.6c0.7,0,1.1-0.5,1.1-1.5c0-1-0.4-1.5-1.1-1.5
		H240.8L240.8,76.7z"/>
	<path class="st1" d="M223.1,76.7h-3c-0.7,0-1.1,0.5-1.1,1.5c0,0.9,0.4,1.5,1.1,1.5h11.6c0.7,0,1.1-0.5,1.1-1.5c0-1-0.4-1.5-1.1-1.5
		H223.1L223.1,76.7z"/>
	<path class="st2" d="M206.2,76.7h-3c-0.7,0-1.1,0.5-1.1,1.5c0,0.9,0.3,1.5,1.1,1.5h11.6c0.7,0,1.1-0.5,1.1-1.5c0-1-0.4-1.5-1.1-1.5
		H206.2L206.2,76.7z"/>
	<path class="st3" d="M188.5,76.7h-3c-0.7,0-1.1,0.5-1.1,1.5c0,0.9,0.4,1.5,1.1,1.5h11.6c0.7,0,1.1-0.5,1.1-1.5c0-1-0.4-1.5-1.1-1.5
		H188.5L188.5,76.7z"/>
	<path class="st4" d="M170.7,76.7h-3c-0.7,0-1.1,0.5-1.1,1.5c0,0.9,0.4,1.5,1.1,1.5h11.6c0.7,0,1.1-0.5,1.1-1.5c0-1-0.4-1.5-1.1-1.5
		H170.7L170.7,76.7z"/>
	<path class="st5" d="M153.9,76.7h-3c-0.7,0-1.1,0.5-1.1,1.5c0,0.9,0.4,1.5,1.1,1.5h11.6c0.7,0,1.1-0.5,1.1-1.5c0-1-0.4-1.5-1.1-1.5
		H153.9L153.9,76.7z"/>
	<path class="st6" d="M136.1,76.7h-3c-0.7,0-1.1,0.5-1.1,1.5c0,0.9,0.4,1.5,1.1,1.5h11.6c0.8,0,1.1-0.5,1.1-1.5c0-1-0.3-1.5-1.1-1.5
		H136.1L136.1,76.7z"/>
	<path class="st7" d="M118.3,76.7h-3c-0.7,0-1.1,0.5-1.1,1.5c0,0.9,0.4,1.5,1.1,1.5h11.6c0.7,0,1.1-0.5,1.1-1.5c0-1-0.4-1.5-1.1-1.5
		H118.3L118.3,76.7z"/>
	<path class="st8" d="M101.5,76.7h-3c-0.7,0-1.1,0.5-1.1,1.5c0,0.9,0.4,1.5,1.1,1.5h11.6c0.7,0,1.1-0.5,1.1-1.5c0-1-0.4-1.5-1.1-1.5
		H101.5L101.5,76.7z"/>
	<path class="st9" d="M83.7,76.7h-3c-0.7,0-1.1,0.5-1.1,1.5c0,0.9,0.4,1.5,1.1,1.5h11.6c0.7,0,1.1-0.5,1.1-1.5c0-1-0.4-1.5-1.1-1.5
		H83.7L83.7,76.7z"/>
	<g>
		<defs>
			<rect id="SVGID_1_" x="45" y="31.3" width="212.5" height="48.4"/>
		</defs>
		<clipPath id="SVGID_00000019658566027446931550000008855656692050514305_">
			<use xlink:href="#SVGID_1_"  style="overflow:visible;"/>
		</clipPath>
		<path style="clip-path:url(#SVGID_00000019658566027446931550000008855656692050514305_);fill:#A0DCEF;" d="M65.9,76.7h-3
			c-0.7,0-1.1,0.5-1.1,1.5c0,0.9,0.4,1.5,1.1,1.5h11.6c0.7,0,1.1-0.5,1.1-1.5c0-1-0.4-1.5-1.1-1.5H65.9L65.9,76.7z"/>
		<path style="clip-path:url(#SVGID_00000019658566027446931550000008855656692050514305_);fill:#AEE0EF;" d="M49.1,76.7h-3
			c-0.7,0-1.1,0.5-1.1,1.5c0,0.9,0.3,1.5,1.1,1.5h11.7c0.7,0,1.1-0.5,1.1-1.5c0-1-0.4-1.5-1.1-1.5H49.1L49.1,76.7z"/>
		<path style="clip-path:url(#SVGID_00000019658566027446931550000008855656692050514305_);fill:#E72542;" d="M45,40.8h3.2v4.3
			c1.1-1.6,2.2-2.8,3.4-3.5c1.6-1,3.3-1.5,5-1.5c1.2,0,2.3,0.2,3.4,0.7c1.1,0.5,1.9,1.1,2.6,1.9c0.7,0.8,1.3,1.9,1.7,3.4
			c1.1-2,2.4-3.4,3.9-4.5c1.6-1,3.3-1.5,5.1-1.5c1.7,0,3.2,0.4,4.5,1.3c1.3,0.9,2.2,2.1,2.9,3.7c0.6,1.6,0.9,3.9,0.9,7v13.7h-3.2
			V52.2c0-2.7-0.2-4.5-0.6-5.5c-0.4-1-1-1.8-1.9-2.4c-0.9-0.6-2-0.9-3.2-0.9c-1.5,0-2.9,0.5-4.2,1.4c-1.3,0.9-2.2,2.1-2.8,3.7
			c-0.6,1.6-0.9,4.1-0.9,7.7v9.8h-3.2V53.1c0-3-0.2-5.1-0.5-6.2c-0.4-1.1-1-2-1.9-2.6c-0.9-0.6-2-1-3.3-1c-1.5,0-2.8,0.4-4.1,1.3
			c-1.2,0.9-2.2,2.1-2.8,3.6c-0.6,1.5-0.9,3.8-0.9,7v10.6H45V40.8L45,40.8z"/>
		<path style="clip-path:url(#SVGID_00000019658566027446931550000008855656692050514305_);fill:#E72542;" d="M100.4,40.2
			c3.8,0,6.9,1.4,9.4,4.2c2.3,2.6,3.4,5.6,3.4,9.2c0,3.5-1.2,6.6-3.6,9.3c-2.4,2.7-5.5,4-9.2,4c-3.8,0-6.9-1.3-9.3-4
			c-2.4-2.6-3.6-5.7-3.6-9.3c0-3.5,1.1-6.6,3.4-9.2C93.4,41.6,96.5,40.2,100.4,40.2 M100.4,43.4c-2.7,0-4.9,1-6.8,3
			c-1.9,2-2.9,4.4-2.9,7.3c0,1.8,0.4,3.5,1.3,5.1c0.9,1.6,2,2.8,3.5,3.7c1.5,0.9,3,1.3,4.8,1.3c1.7,0,3.3-0.4,4.8-1.3
			c1.5-0.8,2.6-2.1,3.5-3.7c0.9-1.6,1.3-3.3,1.3-5.1c0-2.9-1-5.3-2.9-7.3C105.2,44.4,103,43.4,100.4,43.4"/>
		<path style="clip-path:url(#SVGID_00000019658566027446931550000008855656692050514305_);fill:#E72542;" d="M143.8,31.3v34.9h-3.1
			v-4.3c-1.3,1.7-2.8,2.9-4.5,3.7c-1.7,0.8-3.5,1.3-5.4,1.3c-3.5,0-6.5-1.3-8.9-3.9c-2.5-2.6-3.7-5.7-3.7-9.4c0-3.6,1.3-6.7,3.8-9.3
			c2.5-2.6,5.5-3.9,9-3.9c2,0,3.9,0.4,5.5,1.3c1.7,0.9,3.1,2.2,4.3,4V31.3H143.8L143.8,31.3z M131.2,43.4c-1.8,0-3.4,0.4-4.9,1.3
			c-1.5,0.9-2.7,2.1-3.6,3.8c-0.9,1.6-1.3,3.3-1.3,5.1c0,1.8,0.5,3.5,1.3,5.1c0.9,1.6,2.1,2.9,3.6,3.8c1.5,0.9,3.1,1.4,4.9,1.4
			c1.7,0,3.4-0.5,5-1.4c1.5-0.9,2.7-2.1,3.6-3.6c0.8-1.5,1.2-3.3,1.2-5.2c0-2.9-0.9-5.4-2.8-7.3C136.2,44.4,133.9,43.4,131.2,43.4"
			/>
	</g>
	<path class="st13" d="M171.9,57.8l2.7,1.5c-0.9,1.7-1.9,3.2-3,4.3c-1.2,1.1-2.5,1.9-3.9,2.5c-1.4,0.5-3.1,0.9-4.9,0.9
		c-4.1,0-7.2-1.4-9.5-4.1c-2.3-2.7-3.4-5.8-3.4-9.2c0-3.2,0.9-6.1,2.9-8.6c2.5-3.2,5.8-4.8,9.9-4.8c4.2,0,7.6,1.6,10.2,4.9
		c1.8,2.3,2.7,5.2,2.8,8.7H153c0.1,2.9,1,5.4,2.8,7.2c1.8,1.9,4,2.8,6.6,2.8c1.3,0,2.5-0.2,3.7-0.7c1.2-0.4,2.2-1.1,3.1-1.8
		C170.1,60.6,171,59.4,171.9,57.8 M171.9,50.9c-0.4-1.7-1.1-3.1-1.9-4.2c-0.8-1-1.9-1.9-3.3-2.5c-1.3-0.7-2.7-1-4.2-1
		c-2.4,0-4.5,0.8-6.3,2.4c-1.3,1.2-2.2,2.9-2.9,5.2H171.9L171.9,50.9z"/>
	<path class="st13" d="M180.4,40.8h3.3v3.7c1-1.4,2.1-2.5,3.1-3.2c1.1-0.7,2.3-1.1,3.5-1.1c0.9,0,1.9,0.3,2.9,0.8l-1.7,2.7
		c-0.7-0.3-1.3-0.4-1.7-0.4c-1.1,0-2.2,0.4-3.2,1.3c-1,0.9-1.8,2.3-2.3,4.1c-0.4,1.4-0.6,4.3-0.6,8.7v8.5h-3.3V40.8L180.4,40.8z"/>
	<path class="st13" d="M197.2,40.8h3.1v4.5c1.2-1.7,2.6-3,4.1-3.8c1.5-0.9,3.1-1.3,4.9-1.3c1.8,0,3.4,0.5,4.7,1.4
		c1.4,1,2.4,2.3,3.1,3.8c0.7,1.6,1,4.1,1,7.5v12.9h-3V53.9c0-2.9-0.1-4.8-0.3-5.8c-0.4-1.7-1-2.9-2.1-3.7c-1-0.8-2.3-1.2-4-1.2
		c-1.8,0-3.5,0.6-5,1.9c-1.5,1.3-2.4,2.9-2.9,4.8c-0.3,1.2-0.4,3.5-0.4,6.8v9.2h-3.1V40.8L197.2,40.8z"/>
	<path class="st13" d="M249.6,40.8v25.4h-3.1v-4.4c-1.3,1.7-2.8,2.9-4.5,3.8c-1.7,0.8-3.5,1.3-5.4,1.3c-3.5,0-6.5-1.3-8.9-3.9
		c-2.5-2.6-3.7-5.7-3.7-9.5c0-3.6,1.3-6.8,3.8-9.4c2.5-2.6,5.5-3.9,9-3.9c2,0,3.9,0.4,5.5,1.3c1.7,0.9,3.1,2.2,4.3,4v-4.7H249.6
		L249.6,40.8z M236.9,43.3c-1.8,0-3.4,0.4-4.9,1.3c-1.5,0.9-2.7,2.2-3.6,3.8c-0.9,1.6-1.3,3.3-1.3,5.1c0,1.8,0.5,3.5,1.3,5.1
		c0.9,1.6,2.1,2.9,3.6,3.8c1.5,0.9,3.1,1.4,4.9,1.4c1.7,0,3.4-0.5,5-1.4c1.5-0.9,2.7-2.1,3.6-3.7c0.8-1.5,1.2-3.3,1.2-5.2
		c0-2.9-0.9-5.4-2.8-7.3C242,44.3,239.6,43.3,236.9,43.3"/>
	<path class="st13" d="M255.5,41.2c0.3,0,0.7,0.1,1,0.2c0.3,0.2,0.6,0.4,0.7,0.7c0.2,0.3,0.3,0.7,0.3,1c0,0.3-0.1,0.7-0.2,1
		c-0.2,0.3-0.4,0.6-0.7,0.8c-0.3,0.2-0.6,0.2-1,0.2c-0.3,0-0.7-0.1-1-0.2c-0.3-0.2-0.5-0.4-0.7-0.8c-0.2-0.3-0.2-0.6-0.2-1
		c0-0.4,0.1-0.7,0.2-1c0.2-0.3,0.4-0.6,0.7-0.7C254.8,41.2,255.2,41.2,255.5,41.2 M255.5,41.4c-0.3,0-0.5,0.1-0.8,0.2
		c-0.3,0.1-0.5,0.3-0.6,0.6c-0.2,0.3-0.2,0.5-0.2,0.9c0,0.3,0.1,0.5,0.2,0.8c0.1,0.3,0.3,0.5,0.6,0.6c0.3,0.2,0.5,0.2,0.8,0.2
		c0.3,0,0.6-0.1,0.8-0.2c0.3-0.1,0.5-0.3,0.6-0.6c0.1-0.3,0.2-0.5,0.2-0.8c0-0.3-0.1-0.6-0.2-0.9c-0.1-0.3-0.4-0.5-0.6-0.6
		C256.1,41.5,255.8,41.4,255.5,41.4 M254.6,44.2v-2.1h0.7c0.3,0,0.4,0,0.6,0c0.1,0.1,0.2,0.1,0.3,0.2c0.1,0.1,0.1,0.2,0.1,0.3
		c0,0.2-0.1,0.3-0.2,0.4c-0.1,0.1-0.3,0.2-0.5,0.2c0.1,0,0.1,0.1,0.2,0.1c0.1,0.1,0.2,0.2,0.3,0.4l0.3,0.4H256l-0.2-0.3
		c-0.2-0.3-0.3-0.4-0.4-0.5c-0.1,0-0.2-0.1-0.3-0.1H255v0.9H254.6L254.6,44.2z M255,43h0.4c0.2,0,0.3,0,0.4-0.1
		c0.1-0.1,0.1-0.1,0.1-0.2c0-0.1,0-0.1-0.1-0.2c0-0.1-0.1-0.1-0.1-0.1c-0.1,0-0.2,0-0.4,0H255V43L255,43z"/>
</g>
</svg>
