<?xml version="1.0" encoding="utf-8"?>
<!-- Generator: Adobe Illustrator 25.4.1, SVG Export Plug-In . SVG Version: 6.00 Build 0)  -->
<svg version="1.1" id="Capa_1" xmlns="http://www.w3.org/2000/svg" xmlns:xlink="http://www.w3.org/1999/xlink" x="0px" y="0px"
	 viewBox="0 0 300 100" style="enable-background:new 0 0 300 100;" xml:space="preserve">
<style type="text/css">
	.st0{fill:#164193;}
	.st1{fill:#4995D1;}
</style>
<g>
	<path class="st0" d="M143.1,86.2l9.8-34.8c0,0,1.9-7.8,4-11.6c2.1-3.8,6.5-5.4,7.8-5.5c2.4-0.2,4.6,0,6,0.4
		c2.3,0.8,3.3,2.4,3.5,3.1c0.8,3.4-1.6,4.8-3.3,4.9c-1.8,0.1-2.9-0.9-3.2-1.6c-0.3-0.7-0.4-2.1,0.4-3c0.6-0.6,0.3-1.8-0.1-2.1
		c0,0-1.6-0.5-3.5,0.7c-1.2,0.8-2.8,4.5-3.2,5.5c-0.2,0.6-1.8,7-1.8,7l12.1,0l-5.4,18.6h-5.7l3.8-15.7h-5.8l-9.2,34.1L143.1,86.2z"
		/>
	<path class="st0" d="M150.6,45.7c-1.4-4.5-8.6-5-8.6-5l-9.5-0.1L125,68.1h6.3l2.3-8.9c0,0,3.3,0.1,5.7-0.2c6.2-0.8,8.5-3.4,8.5-3.4
		C148.8,54.3,152,50.2,150.6,45.7z M142.9,52.6c0,0-1.3,2.2-4.1,2.8c-0.5,0.1-1.1,0.3-4.1,0.3l3.3-12.2h2.5c1.9,0.2,3.6,0.9,4.1,2.8
		C145,47.8,143.4,51.9,142.9,52.6z"/>
	<polygon class="st0" points="173.8,49.3 190,49.3 178.1,65.1 186.7,65.1 185.9,68.1 168.8,68.1 181.1,52.6 172.9,52.6 	"/>
	<path class="st0" d="M205.5,59.2c1.4-4.9-1-10.3-6.7-10.3c-5.7,0-10.3,5-10.7,9c-0.4,4,0.4,10.8,9.1,10.8c4.4,0,6.9-2.4,6.9-2.4
		l-1.3-3.1c0,0-1.9,2.6-5.7,2c-3.7-0.6-3.7-4.4-3.3-6C195.4,59.2,205.5,59.2,205.5,59.2z M198.3,51.9c3.8,0,2.4,4.4,2.4,4.4h-6.6
		C194.1,56.4,194.5,51.9,198.3,51.9z"/>
	<path class="st0" d="M216.3,49.3h-5.8l-4.9,18.2h6c0,0,1.9-10.5,5.5-14.1c1.3-1.3,2.5-0.4,2.9,0.9c0.4,1.2,2.4,2.5,4.4,0.9
		c2-1.6,1.2-5.3-1.5-5.9c-2.7-0.6-6,2-7.3,3.7L216.3,49.3z"/>
	<path class="st1" d="M72.7,31.4l3.2-12.1c0,0,12.9,0.8,29.2,7.1s16.8,14,16.6,15c-0.2,0.9-2.8,12.4-2.8,12.4
		C118.4,38.3,86,32.3,72.7,31.4z"/>
	<path class="st0" d="M91.7,49.4l-3,11.9c0,0,26.4,4.1,30.1-7.5c-0.1-2.2-0.8-4.2-2-6C114.7,50.2,99.4,50.8,91.7,49.4z"/>
	<path class="st0" d="M110.8,67.5l-3.2,12.1c0,0-12.9-0.8-29.2-7.1c-16.3-6.3-16.8-14-16.6-15c0.2-0.9,2.8-12.4,2.8-12.4
		C65.1,60.5,97.5,66.6,110.8,67.5z"/>
	<path class="st1" d="M91.8,49.4l3-11.9c0,0-26.4-4.1-30.1,7.5c0.1,2.2,0.8,4.2,2,6C68.8,48.7,84.1,48,91.8,49.4z"/>
</g>
</svg>
