<?xml version="1.0" encoding="utf-8"?>
<!-- Generator: Adobe Illustrator 25.4.1, SVG Export Plug-In . SVG Version: 6.00 Build 0)  -->
<svg version="1.1" id="Capa_1" xmlns="http://www.w3.org/2000/svg" xmlns:xlink="http://www.w3.org/1999/xlink" x="0px" y="0px"
	 viewBox="0 0 300 100" style="enable-background:new 0 0 300 100;" xml:space="preserve">
<style type="text/css">
	.st0{fill:#231814;}
	.st1{fill:#D7140E;}
</style>
<g>
	<polygon class="st0" points="82.1,40.5 82.1,44.1 82.1,66.7 82.1,70.3 89.7,70.3 89.7,66.7 89.7,44.1 89.7,40.5 	"/>
	<path class="st0" d="M156.1,55.4c0,4.8-1.3,8.6-3.9,11.4c-2.7,2.8-6.3,4.1-10.9,4.1c-4.7,0-8.4-1.3-10.9-4.1
		c-2.7-2.8-3.9-6.6-3.9-11.4c0-4.9,1.3-8.7,3.9-11.5c2.6-2.8,6.3-4.1,11-4.1c4.7,0,8.4,1.3,11,4.1C154.9,46.6,156.1,50.5,156.1,55.4
		 M148.9,55.4c0-3.1-0.7-5.6-2-7.4c-1.3-1.8-3.2-2.8-5.6-2.8c-2.5,0-4.3,0.9-5.6,2.8c-1.3,1.8-2,4.3-2,7.4c0,3.1,0.7,5.5,2,7.4
		c1.3,1.8,3.2,2.8,5.6,2.8s4.3-0.9,5.6-2.8C148.2,61,148.9,58.5,148.9,55.4"/>
	<polygon class="st1" points="179.5,40.5 187.1,40.5 177,70.3 168.2,70.3 158,40.5 165.6,40.5 172.5,61.9 	"/>
	<path class="st0" d="M54.9,69.8v-5.9c3.3,1,6.3,1.5,8.8,1.5c3.6,0,5.3-0.9,5.3-2.8c0-0.7-0.3-1.3-0.8-1.8c-0.6-0.5-1.9-1.2-4.1-2.1
		c-3.9-1.6-6.5-3-7.7-4.2c-1.5-1.5-2.3-3.4-2.3-5.7c0-2.9,1.1-5.2,3.4-6.7c2.2-1.5,5.1-2.3,8.7-2.3c2,0,5.2,0.3,8.8,1V46
		c-2.8-0.8-5.6-1.2-8-1.2c-3.3,0-5,0.9-5,2.8c0,0.7,0.4,1.2,1,1.7c0.6,0.4,2.1,1.1,4.7,2.3c3.6,1.6,6.1,3,7.3,4.2
		c1.4,1.4,2.2,3.2,2.2,5.5c0,3.2-1.4,5.7-4.2,7.4c-2.3,1.4-5.2,2.1-8.8,2.1C61,70.8,58,70.5,54.9,69.8"/>
	<polygon class="st0" points="95.4,70.3 95.4,40.5 104.9,40.5 115.5,60.4 115.5,40.5 121.3,40.5 121.3,70.3 112.4,70.3 101.3,50 
		101.3,70.3 	"/>
	<polygon class="st1" points="192.2,70.3 184.6,70.3 194.7,40.5 203.6,40.5 213.7,70.3 206.1,70.3 199.1,48.9 	"/>
	<path class="st1" d="M239.7,64.5c-2.3,0.7-5.8,1-7.1,1c-3.1,0-5.6-0.9-7.4-2.8c-1.9-1.8-2.8-4.3-2.8-7.3s0.9-5.4,2.8-7.3
		c1.8-1.9,4.2-2.8,7.2-2.8c1.2,0,4.1,0.2,7.4,1.3v-5.4c-0.8-0.3-1.8-0.6-2.9-0.8c-1.4-0.3-3-0.5-4.8-0.5c-5.1,0-9.2,1.4-12.2,4.3
		c-3,2.8-4.6,6.6-4.6,11.5c0,4.7,1.5,8.5,4.6,11.2c3,2.8,7.1,4.1,12.4,4.1c1.6,0,3.1-0.1,4.6-0.4c1.1-0.2,2.2-0.4,3.2-0.7v-5.5
		H239.7z"/>
</g>
</svg>
